<?xml version="1.0" encoding="UTF-8" standalone="no"?>
<!DOCTYPE svg PUBLIC "-//W3C//DTD SVG 20010904//EN" "http://www.w3.org/TR/2001/REC-SVG-20010904/DTD/svg10.dtd">
<svg version="1.0" xmlns="http://www.w3.org/2000/svg" width="300.000000pt" height="300.000000pt" viewBox="0 0 300.000000 300.000000" preserveAspectRatio="xMidYMid meet">
<metadata>
Created by potrace 1.10, written by Peter Selinger 2001-2011
</metadata>
<g transform="translate(0.000000,300.000000) scale(0.100000,-0.100000)" stroke="none">
<path d="M1898 2872 c-25 -9 -55 -25 -65 -34 -10 -10 -48 -27 -83 -38 -79 -25 -112 -46 -90 -60 8 -5 37 -11 65 -15 73 -9 103 -23 120 -58 20 -39 19 -56 -5 -143 -19 -68 -20 -76 -5 -146 8 -40 30 -117 49 -171 32 -91 56 -133 165 -291 47 -68 50 -93 16 -130 l-24 -26 -811 0 -812 0 5 -297 c3 -244 7 -309 22 -358 79 -275 277 -495 530 -590 201 -76 440 -73 633 7 187 78 350 228 441 406 l21 42 128 0 c145 0 195 12 279 67 63 41 104 91 141 170 24 52 27 69 27 171 0 90 3 112 14 112 8 0 23 7 33 17 17 15 20 15 43 -7 25 -23 55 -22 55 3 0 8 -9 36 -21 62 -16 37 -18 49 -8 55 10 7 9 15 -2 42 -7 18 -13 37 -11 41 1 5 -8 23 -20 40 -38 53 -49 77 -93 202 -7 22 -32 117 -55 210 -49 204 -79 286 -132 365 -43 65 -74 91 -130 109 -20 7 -44 24 -54 39 -23 36 -171 180 -209 203 -37 23 -94 23 -157 1z m380 -1040 c56 -26 60 -32 36 -56 -12 -12 -38 -16 -115 -16 -54 0 -99 4 -99 9 0 5 19 29 42 55 47 51 46 51 136 8z m85 -315 c102 -78 102 -226 0 -304 -33 -26 -45 -28 -136 -31 -90 -4 -99 -2 -93 13 3 9 6 93 6 187 l0 170 93 -4 c84 -3 97 -6 130 -31z"/>
<path d="M1373 2765 c1 -91 -46 -154 -230 -307 -183 -154 -205 -242 -98 -393 44 -62 90 -108 160 -160 l39 -30 -37 66 c-20 37 -50 100 -66 141 -45 110 -38 127 116 290 158 168 193 270 136 399 l-20 44 0 -50z"/>
<path d="M1540 2484 c-125 -33 -226 -100 -267 -177 -10 -19 -17 -56 -17 -92 -1 -54 4 -68 47 -140 62 -104 62 -148 3 -214 l-21 -23 25 7 c59 18 100 48 129 95 31 52 27 100 -19 201 -28 60 -39 95 -35 112 11 41 64 97 168 174 107 80 105 89 -13 57z"/>
<path d="M225 333 c10 -14 51 -81 91 -147 41 -67 86 -130 101 -141 27 -20 46 -20 859 -23 l831 -2 33 22 c21 15 66 74 121 163 48 77 88 143 88 148 1 4 -481 7 -1070 7 l-1071 0 17 -27z"/>
</g>
</svg>